<?xml version="1.0" standalone="no"?>
<!DOCTYPE svg PUBLIC "-//W3C//DTD SVG 20010904//EN"
 "http://www.w3.org/TR/2001/REC-SVG-20010904/DTD/svg10.dtd">
<svg version="1.0" xmlns="http://www.w3.org/2000/svg"
 width="250.000000pt" height="270.000000pt" viewBox="0 0 250.000000 270.000000"
 preserveAspectRatio="xMidYMid meet">

<g transform="translate(0.000000,270.000000) scale(0.100000,-0.100000)"
fill="#000000" stroke="none">
<path d="M1148 2344 c-167 -40 -288 -161 -288 -287 l0 -49 29 31 c23 24 37 31
68 31 58 0 86 -33 91 -109 6 -83 -28 -153 -121 -251 -153 -159 -190 -223 -195
-335 -3 -57 2 -89 28 -175 44 -143 47 -251 8 -326 -15 -28 -50 -72 -77 -97
l-51 -45 0 -165 c0 -160 1 -167 23 -193 30 -35 79 -37 110 -5 19 19 22 34 25
129 l4 107 39 19 c59 27 97 63 131 122 34 61 62 74 164 74 142 0 154 -19 154
-247 0 -178 5 -199 51 -224 29 -15 83 5 98 37 7 16 11 89 11 199 0 199 -2 205
-76 205 -52 0 -51 -10 -28 170 28 221 27 215 10 252 -24 50 -57 64 -201 88
-177 28 -198 35 -239 76 -42 42 -48 74 -13 74 84 1 189 107 231 233 4 14 18
17 75 17 65 0 71 2 95 31 24 29 26 37 26 134 0 57 4 106 8 109 5 3 41 -12 82
-32 143 -71 238 -196 284 -374 l13 -52 23 59 c28 74 39 253 20 348 -31 160
-143 307 -290 379 -115 56 -212 69 -322 42z m81 -419 c33 -36 41 -52 41 -83 0
-44 -27 -76 -72 -87 l-28 -7 0 111 c0 61 4 111 9 111 5 0 27 -20 50 -45z"/>
<path d="M1194 1556 c-3 -8 -4 -25 -2 -38 2 -19 8 -23 33 -20 31 3 80 46 70
63 -10 15 -95 11 -101 -5z"/>
<path d="M1638 1114 c-3 -5 -23 -70 -43 -144 -21 -74 -40 -140 -42 -147 -3 -8
15 -13 62 -15 l66 -3 -72 -100 c-39 -55 -77 -114 -85 -132 -17 -40 -18 -114
-1 -137 11 -15 27 -2 157 130 228 231 230 233 230 242 0 5 -24 36 -52 69 -29
32 -73 83 -98 113 -80 96 -117 133 -122 124z"/>
<path d="M1037 752 c-9 -10 -23 -38 -32 -62 -8 -24 -20 -49 -26 -56 -8 -10 4
-44 49 -138 49 -102 66 -128 92 -141 53 -27 120 -5 120 39 0 11 -25 72 -55
135 -55 113 -55 114 -36 135 21 24 61 87 61 99 0 4 -35 7 -78 7 -63 0 -82 -4
-95 -18z"/>
</g>
</svg>
